<?xml version="1.0" encoding="UTF-8"?>
<!-- Generated by Pixelmator Pro 3.5.1 -->
<svg width="512" height="512" viewBox="0 0 512 512" xmlns="http://www.w3.org/2000/svg">
    <linearGradient id="linearGradient1" x1="145.547702" y1="485.513666" x2="371.509787" y2="25.992365" gradientUnits="userSpaceOnUse">
        <stop offset="0" stop-color="#1c70f2" stop-opacity="1"/>
        <stop offset="1" stop-color="#1ac9fb" stop-opacity="1"/>
    </linearGradient>
    <path id="Ellipse" fill="url(#linearGradient1)" fill-rule="evenodd" stroke="none" d="M 512 256 C 512 114.615112 397.384888 0 256 0 C 114.615105 0 0 114.615112 0 256 C 0 397.384888 114.615105 512 256 512 C 397.384888 512 512 397.384888 512 256 Z"/>
    <path id="Path" fill="#ffffff" stroke="none" d="M 305.0625 315.9375 C 364.673431 315.9375 413 267.149231 413 206.96875 C 413 146.788269 364.673431 98 305.0625 98 C 245.451569 98 197.125 146.788269 197.125 206.96875 C 197.125 218.546692 198.903519 229.753113 202.21524 240.216614 L 103.292969 340.083984 C 100.533203 342.870117 99 346.646881 99 350.609375 L 99 400.140625 C 99 408.375183 105.562111 415 113.71875 415 L 162.78125 415 C 170.937897 415 177.5 408.375183 177.5 400.140625 L 177.5 375.375 L 202.03125 375.375 C 210.187897 375.375 216.75 368.750183 216.75 360.515625 L 216.75 335.75 L 241.28125 335.75 C 245.206253 335.75 248.947266 334.202148 251.707031 331.416016 L 272.129303 310.798645 C 282.493744 314.141998 293.594147 315.9375 305.0625 315.9375 Z M 329.59375 157.4375 C 343.141998 157.4375 354.125 168.525452 354.125 182.203125 C 354.125 195.880798 343.141998 206.96875 329.59375 206.96875 C 316.045502 206.96875 305.0625 195.880798 305.0625 182.203125 C 305.0625 168.525452 316.045502 157.4375 329.59375 157.4375 Z"/>
</svg>
